<?xml version="1.0" standalone="no"?>
<!DOCTYPE svg PUBLIC "-//W3C//DTD SVG 20010904//EN"
 "http://www.w3.org/TR/2001/REC-SVG-20010904/DTD/svg10.dtd">
<svg version="1.0" xmlns="http://www.w3.org/2000/svg"
 width="250.000000pt" height="250.000000pt" viewBox="0 0 250.000000 250.000000"
 preserveAspectRatio="xMidYMid meet">

<g transform="translate(0.000000,250.000000) scale(0.100000,-0.100000)"
fill="#000000" stroke="none">
<path d="M0 1250 l0 -1250 1250 0 1250 0 0 1250 0 1250 -1250 0 -1250 0 0
-1250z m1360 755 c36 -9 106 -36 155 -60 579 -279 579 -1111 0 -1390 -142 -68
-186 -76 -462 -82 l-243 -6 0 137 0 136 -130 0 -130 0 0 510 0 510 130 0 130
0 0 128 c0 71 3 132 8 136 4 5 113 6 242 3 176 -4 251 -9 300 -22z"/>
<path d="M990 1806 l0 -46 133 0 c150 0 204 -11 298 -61 202 -107 307 -343
254 -568 -42 -178 -191 -330 -369 -377 -30 -8 -102 -14 -176 -14 l-125 0 -3
85 -3 85 95 0 c161 0 243 27 320 103 70 70 91 125 91 237 0 112 -21 167 -91
237 -91 91 -152 104 -459 99 l-230 -3 0 -334 0 -334 42 -3 43 -3 2 328 3 328
81 3 81 3 7 -32 c3 -17 6 -225 6 -461 l0 -430 153 4 c130 5 163 9 227 31 186
66 335 224 385 413 21 77 21 231 0 308 -50 189 -199 347 -385 413 -64 22 -97
26 -227 31 l-153 4 0 -46z"/>
</g>
</svg>
